<svg width="109" height="93" viewBox="0 0 109 93" fill="none" xmlns="http://www.w3.org/2000/svg">
<path d="M9.75 87.364C8.294 87.364 7.01133 87.104 5.902 86.584C4.81 86.0467 3.9 85.336 3.172 84.452C2.444 83.568 1.898 82.5453 1.534 81.384C1.17 80.2227 0.988 79.0007 0.988 77.718C0.988 76.4527 1.17 75.2393 1.534 74.078C1.898 72.8993 2.444 71.868 3.172 70.984C3.9 70.0827 4.81 69.372 5.902 68.852C7.01133 68.3147 8.294 68.046 9.75 68.046C10.634 68.046 11.492 68.176 12.324 68.436C13.1733 68.696 13.936 69.086 14.612 69.606C15.3053 70.1087 15.8773 70.7327 16.328 71.478C16.796 72.2233 17.0907 73.0813 17.212 74.052H15.444C15.288 73.3413 15.028 72.7087 14.664 72.154C14.3173 71.582 13.884 71.1053 13.364 70.724C12.8613 70.3427 12.298 70.0567 11.674 69.866C11.0673 69.658 10.426 69.554 9.75 69.554C8.51933 69.554 7.462 69.788 6.578 70.256C5.694 70.724 4.966 71.348 4.394 72.128C3.83933 72.8907 3.42333 73.766 3.146 74.754C2.886 75.7247 2.756 76.7127 2.756 77.718C2.756 78.7407 2.886 79.7373 3.146 80.708C3.42333 81.6787 3.83933 82.554 4.394 83.334C4.966 84.0967 5.694 84.712 6.578 85.18C7.462 85.648 8.51933 85.882 9.75 85.882C10.5993 85.882 11.3707 85.726 12.064 85.414C12.7747 85.102 13.3813 84.6773 13.884 84.14C14.3867 83.6027 14.794 82.9787 15.106 82.268C15.418 81.54 15.6173 80.76 15.704 79.928H17.472C17.3507 81.072 17.082 82.1033 16.666 83.022C16.25 83.9407 15.7127 84.7207 15.054 85.362C14.3953 86.0033 13.6153 86.4973 12.714 86.844C11.83 87.1907 10.842 87.364 9.75 87.364ZM19.8406 73.584H30.5526V87H28.9146V74.962H21.4786V87H19.8406V73.584ZM37.4238 87.364C36.7998 87.364 36.2104 87.286 35.6558 87.13C35.1184 86.9913 34.6418 86.766 34.2258 86.454C33.8271 86.1247 33.5064 85.7173 33.2638 85.232C33.0384 84.7293 32.9258 84.14 32.9258 83.464C32.9258 82.528 33.1338 81.8 33.5498 81.28C33.9658 80.7427 34.5118 80.3353 35.1878 80.058C35.8811 79.7807 36.6524 79.59 37.5018 79.486C38.3684 79.3647 39.2438 79.252 40.1278 79.148C40.4571 79.1133 40.7518 79.07 41.0118 79.018C41.2891 78.966 41.5144 78.8793 41.6878 78.758C41.8611 78.6193 41.9911 78.4373 42.0778 78.212C42.1818 77.9867 42.2338 77.692 42.2338 77.328C42.2338 76.7733 42.1384 76.3227 41.9478 75.976C41.7744 75.612 41.5231 75.326 41.1938 75.118C40.8818 74.91 40.5091 74.7713 40.0758 74.702C39.6598 74.6153 39.2091 74.572 38.7238 74.572C37.6838 74.572 36.8344 74.8233 36.1758 75.326C35.5171 75.8113 35.1704 76.6 35.1358 77.692H33.4978C33.6018 76.1147 34.1391 74.9707 35.1098 74.26C36.0978 73.5493 37.3718 73.194 38.9318 73.194C39.5211 73.194 40.1104 73.2547 40.6998 73.376C41.2891 73.48 41.8178 73.688 42.2858 74C42.7538 74.312 43.1351 74.754 43.4298 75.326C43.7244 75.8807 43.8718 76.6087 43.8718 77.51V84.634C43.8718 85.2927 44.1924 85.622 44.8338 85.622C45.0418 85.622 45.2151 85.5873 45.3538 85.518V86.896C45.1631 86.9307 44.9898 86.9567 44.8338 86.974C44.6951 86.9913 44.5131 87 44.2878 87C43.8718 87 43.5338 86.948 43.2738 86.844C43.0311 86.7227 42.8404 86.558 42.7018 86.35C42.5631 86.142 42.4678 85.8993 42.4158 85.622C42.3811 85.3273 42.3638 85.0067 42.3638 84.66H42.3118C42.0171 85.0933 41.7138 85.4833 41.4018 85.83C41.1071 86.1593 40.7691 86.4367 40.3878 86.662C40.0238 86.8873 39.5991 87.0607 39.1138 87.182C38.6284 87.3033 38.0651 87.364 37.4238 87.364ZM37.5538 86.012C38.1778 86.012 38.7758 85.9167 39.3478 85.726C39.9198 85.5353 40.4138 85.258 40.8298 84.894C41.2631 84.53 41.6011 84.088 41.8438 83.568C42.1038 83.048 42.2338 82.4587 42.2338 81.8V79.668H42.1818C42.0778 79.8587 41.8784 79.9973 41.5838 80.084C41.2891 80.1707 41.0291 80.2313 40.8038 80.266C40.1104 80.3873 39.3911 80.5 38.6458 80.604C37.9178 80.6907 37.2504 80.8293 36.6438 81.02C36.0371 81.2107 35.5344 81.488 35.1358 81.852C34.7544 82.216 34.5638 82.7187 34.5638 83.36C34.5638 83.776 34.6418 84.1487 34.7978 84.478C34.9711 84.79 35.1964 85.0673 35.4738 85.31C35.7511 85.5353 36.0631 85.7087 36.4098 85.83C36.7738 85.9513 37.1551 86.012 37.5538 86.012ZM52.8042 87.364C51.7815 87.364 50.8715 87.182 50.0742 86.818C49.2942 86.4367 48.6355 85.9253 48.0982 85.284C47.5608 84.6427 47.1535 83.8973 46.8762 83.048C46.5988 82.1813 46.4602 81.2627 46.4602 80.292C46.4602 79.3387 46.5988 78.4287 46.8762 77.562C47.1535 76.6953 47.5608 75.9413 48.0982 75.3C48.6355 74.6587 49.2942 74.1473 50.0742 73.766C50.8715 73.3847 51.7815 73.194 52.8042 73.194C54.2428 73.194 55.4562 73.5753 56.4442 74.338C57.4495 75.1007 58.0475 76.2533 58.2382 77.796H56.6002C56.3748 76.7907 55.9588 76.002 55.3522 75.43C54.7455 74.858 53.8962 74.572 52.8042 74.572C52.0242 74.572 51.3395 74.7367 50.7502 75.066C50.1608 75.3953 49.6668 75.8287 49.2682 76.366C48.8868 76.9033 48.5922 77.5187 48.3842 78.212C48.1935 78.888 48.0982 79.5813 48.0982 80.292C48.0982 81.0027 48.1935 81.7047 48.3842 82.398C48.5922 83.074 48.8868 83.6807 49.2682 84.218C49.6668 84.7553 50.1608 85.1887 50.7502 85.518C51.3395 85.8473 52.0242 86.012 52.8042 86.012C53.3068 86.012 53.7835 85.9167 54.2342 85.726C54.6848 85.5353 55.0835 85.2753 55.4302 84.946C55.7768 84.5993 56.0628 84.192 56.2882 83.724C56.5135 83.256 56.6522 82.7447 56.7042 82.19H58.3422C58.1168 83.8193 57.5188 85.0933 56.5482 86.012C55.5775 86.9133 54.3295 87.364 52.8042 87.364ZM60.5926 73.584H62.2306V85.076L69.6406 73.584H71.6686V87H70.0306V75.508L62.6206 87H60.5926V73.584ZM80.5592 87.364C79.3285 87.364 78.3145 87.1387 77.5172 86.688C76.7198 86.2373 76.0872 85.6393 75.6192 84.894C75.1512 84.1487 74.8218 83.2907 74.6312 82.32C74.4405 81.3493 74.3452 80.344 74.3452 79.304C74.3452 78.6627 74.3712 77.9953 74.4232 77.302C74.4752 76.5913 74.5618 75.898 74.6832 75.222C74.8218 74.5287 74.9952 73.87 75.2032 73.246C75.4112 72.622 75.6798 72.0587 76.0092 71.556C76.6158 70.62 77.3438 69.9527 78.1932 69.554C79.0425 69.1553 80.1085 68.9127 81.3912 68.826L82.6392 68.748C83.3325 68.7133 83.8005 68.644 84.0432 68.54C84.2858 68.436 84.4592 68.2713 84.5632 68.046H86.3832C86.2445 68.8433 85.8892 69.3893 85.3172 69.684C84.7625 69.9613 83.9132 70.1347 82.7692 70.204L80.7932 70.334C79.2678 70.438 78.1065 70.984 77.3092 71.972C76.5118 72.96 75.9658 74.494 75.6712 76.574H75.7492C76.1998 75.6727 76.8672 74.9533 77.7512 74.416C78.6352 73.8613 79.6232 73.584 80.7152 73.584C81.6165 73.584 82.4312 73.74 83.1592 74.052C83.9045 74.364 84.5458 74.8147 85.0832 75.404C85.6205 75.9933 86.0365 76.7127 86.3312 77.562C86.6258 78.4113 86.7732 79.3647 86.7732 80.422C86.7732 81.462 86.6258 82.4153 86.3312 83.282C86.0365 84.1313 85.6118 84.8593 85.0572 85.466C84.5198 86.0727 83.8698 86.5407 83.1072 86.87C82.3445 87.1993 81.4952 87.364 80.5592 87.364ZM80.5592 86.012C81.2178 86.012 81.8245 85.882 82.3792 85.622C82.9512 85.3447 83.4365 84.9633 83.8352 84.478C84.2512 83.9753 84.5718 83.386 84.7972 82.71C85.0225 82.0167 85.1352 81.254 85.1352 80.422C85.1352 79.6073 85.0225 78.862 84.7972 78.186C84.5718 77.51 84.2512 76.938 83.8352 76.47C83.4365 75.9847 82.9598 75.612 82.4052 75.352C81.8678 75.0747 81.2785 74.936 80.6372 74.936C79.9438 74.936 79.3112 75.066 78.7392 75.326C78.1672 75.586 77.6732 75.9587 77.2572 76.444C76.8585 76.912 76.5465 77.484 76.3212 78.16C76.0958 78.836 75.9832 79.59 75.9832 80.422C75.9832 81.254 76.0958 82.0167 76.3212 82.71C76.5465 83.386 76.8585 83.9753 77.2572 84.478C77.6732 84.9633 78.1585 85.3447 78.7132 85.622C79.2852 85.882 79.9005 86.012 80.5592 86.012ZM94.8764 87.364C93.8538 87.364 92.9438 87.182 92.1464 86.818C91.3664 86.4367 90.7078 85.9253 90.1704 85.284C89.6331 84.6427 89.2258 83.8973 88.9484 83.048C88.6711 82.1813 88.5324 81.2627 88.5324 80.292C88.5324 79.3387 88.6711 78.4287 88.9484 77.562C89.2258 76.6953 89.6331 75.9413 90.1704 75.3C90.7078 74.6587 91.3664 74.1473 92.1464 73.766C92.9438 73.3847 93.8538 73.194 94.8764 73.194C95.8991 73.194 96.8004 73.3847 97.5804 73.766C98.3778 74.1473 99.0451 74.6587 99.5824 75.3C100.12 75.9413 100.527 76.6953 100.804 77.562C101.082 78.4287 101.22 79.3387 101.22 80.292C101.22 81.2627 101.082 82.1813 100.804 83.048C100.527 83.8973 100.12 84.6427 99.5824 85.284C99.0451 85.9253 98.3778 86.4367 97.5804 86.818C96.8004 87.182 95.8991 87.364 94.8764 87.364ZM94.8764 86.012C95.6564 86.012 96.3411 85.8473 96.9304 85.518C97.5198 85.1887 98.0051 84.7553 98.3864 84.218C98.7851 83.6807 99.0798 83.074 99.2704 82.398C99.4784 81.7047 99.5824 81.0027 99.5824 80.292C99.5824 79.5813 99.4784 78.888 99.2704 78.212C99.0798 77.5187 98.7851 76.9033 98.3864 76.366C98.0051 75.8287 97.5198 75.3953 96.9304 75.066C96.3411 74.7367 95.6564 74.572 94.8764 74.572C94.0964 74.572 93.4118 74.7367 92.8224 75.066C92.2331 75.3953 91.7391 75.8287 91.3404 76.366C90.9591 76.9033 90.6644 77.5187 90.4564 78.212C90.2658 78.888 90.1704 79.5813 90.1704 80.292C90.1704 81.0027 90.2658 81.7047 90.4564 82.398C90.6644 83.074 90.9591 83.6807 91.3404 84.218C91.7391 84.7553 92.2331 85.1887 92.8224 85.518C93.4118 85.8473 94.0964 86.012 94.8764 86.012ZM104.15 87H106.334V84.244H104.15V87ZM104.358 73.974L104.748 82.372H105.736L106.126 73.974V68.436H104.358V73.974Z" fill="black"/>
<path d="M73.3847 7.61516C68.474 2.70451 61.9448 0 55 0C48.0551 0 41.5258 2.70451 36.6152 7.61516C31.7044 12.5259 29 19.0552 29 26C29 32.9448 31.7044 39.474 36.6152 44.3847C41.5259 49.2955 48.0551 52 55 52C61.9448 52 68.474 49.2955 73.3847 44.3847C78.2955 39.474 81 32.9448 81 26C81 19.0552 78.2955 12.526 73.3847 7.61516ZM55 48.9531C42.3436 48.9531 32.0469 38.6564 32.0469 26C32.0469 13.3436 42.3436 3.04688 55 3.04688C67.6564 3.04688 77.9531 13.3436 77.9531 26C77.9531 38.6564 67.6564 48.9531 55 48.9531Z" fill="black"/>
<path d="M67.4216 17.6575C66.8267 17.0628 65.8621 17.0628 65.2672 17.6576L51.8144 31.1105L44.7327 24.0289C44.1379 23.434 43.1732 23.434 42.5783 24.0289C41.9833 24.6237 41.9833 25.5883 42.5783 26.1833L50.7371 34.3421C51.0346 34.6396 51.4245 34.7883 51.8143 34.7883C52.2041 34.7883 52.5941 34.6395 52.8915 34.3421L67.4216 19.812C68.0165 19.2171 68.0165 18.2525 67.4216 17.6575Z" fill="black"/>
</svg>
